
<svg width="24" height="24" viewBox="0 0 24 24" fill="none" xmlns="http://www.w3.org/2000/svg">
  <path d="M12 3C7.03 3 3 7.03 3 12C3 16.97 7.03 21 12 21C16.97 21 21 16.97 21 12C21 7.03 16.97 3 12 3ZM5.5 14C4.67 14 4 13.33 4 12.5C4 11.67 4.67 11 5.5 11C6.33 11 7 11.67 7 12.5C7 13.33 6.33 14 5.5 14ZM8.5 8C7.67 8 7 7.33 7 6.5C7 5.67 7.67 5 8.5 5C9.33 5 10 5.67 10 6.5C10 7.33 9.33 8 8.5 8ZM15 19C14.17 19 13.5 18.33 13.5 17.5C13.5 16.67 14.17 16 15 16C15.83 16 16.5 16.67 16.5 17.5C16.5 18.33 15.83 19 15 19ZM18.5 13C17.67 13 17 12.33 17 11.5C17 10.67 17.67 10 18.5 10C19.33 10 20 10.67 20 11.5C20 12.33 19.33 13 18.5 13Z" fill="#33C3F0"/>
  <path d="M7 12.5H12.5V17.5" stroke="#33C3F0" stroke-width="2" stroke-linecap="round"/>
  <path d="M17 11.5L12.5 7V11.5" stroke="#33C3F0" stroke-width="2" stroke-linecap="round"/>
</svg>
