
<svg width="40" height="40" viewBox="0 0 40 40" fill="none" xmlns="http://www.w3.org/2000/svg">
  <rect width="40" height="40" rx="8" fill="#33C3F0"/>
  <path d="M23.172 12.36C24.052 12.36 24.84 12.588 25.536 13.044C26.244 13.5 26.8 14.132 27.204 14.94C27.608 15.748 27.81 16.668 27.81 17.7C27.81 18.732 27.608 19.658 27.204 20.478C26.8 21.286 26.244 21.918 25.536 22.374C24.84 22.83 24.052 23.058 23.172 23.058C22.292 23.058 21.498 22.83 20.79 22.374C20.094 21.918 19.544 21.286 19.14 20.478C18.736 19.658 18.534 18.732 18.534 17.7C18.534 16.668 18.736 15.748 19.14 14.94C19.544 14.132 20.094 13.5 20.79 13.044C21.498 12.588 22.292 12.36 23.172 12.36ZM23.172 14.166C22.652 14.166 22.172 14.304 21.732 14.58C21.304 14.844 20.966 15.23 20.718 15.738C20.47 16.246 20.346 16.908 20.346 17.724C20.346 18.54 20.47 19.202 20.718 19.71C20.966 20.218 21.304 20.604 21.732 20.868C22.172 21.132 22.652 21.264 23.172 21.264C23.692 21.264 24.166 21.132 24.594 20.868C25.034 20.604 25.378 20.218 25.626 19.71C25.874 19.202 25.998 18.54 25.998 17.724C25.998 16.908 25.874 16.246 25.626 15.738C25.378 15.23 25.034 14.844 24.594 14.58C24.166 14.304 23.692 14.166 23.172 14.166Z" fill="white"/>
  <path d="M12.172 12.36C12.58 12.36 12.898 12.492 13.122 12.756C13.358 13.02 13.476 13.386 13.476 13.854V21.552C13.476 22.02 13.358 22.386 13.122 22.65C12.898 22.914 12.58 23.046 12.172 23.046C11.632 23.046 11.272 22.812 11.092 22.344L8.034 15.834V21.552C8.034 22.02 7.916 22.386 7.68 22.65C7.456 22.914 7.138 23.046 6.73 23.046C6.31 23.046 5.986 22.914 5.762 22.65C5.538 22.386 5.426 22.02 5.426 21.552V13.866C5.426 13.398 5.538 13.032 5.762 12.768C5.986 12.504 6.31 12.372 6.73 12.372C7.27 12.372 7.63 12.606 7.81 13.074L10.868 19.572V13.854C10.868 13.386 10.986 13.02 11.222 12.756C11.458 12.492 11.776 12.36 12.172 12.36Z" fill="white"/>
  <path d="M25 26H14C14 26 15.842 28.193 19.684 28.193C22 28.193 25 26 25 26Z" fill="white"/>
</svg>
